<?xml version="1.0" encoding="UTF-8"?>
<svg width="700pt" height="700pt" version="1.1" viewBox="0 0 700 700" xmlns="http://www.w3.org/2000/svg" xmlns:xlink="http://www.w3.org/1999/xlink">
 <defs>
  <symbol id="g" overflow="visible">
   <path d="m39.078-2.3281c-2.0117 1.043-4.1094 1.8281-6.2969 2.3594s-4.4648 0.79688-6.8281 0.79688c-7.0859 0-12.699-1.9766-16.844-5.9375-4.1367-3.957-6.2031-9.3281-6.2031-16.109 0-6.7891 2.0664-12.164 6.2031-16.125 4.1445-3.9688 9.7578-5.9531 16.844-5.9531 2.3633 0 4.6406 0.26562 6.8281 0.79688s4.2852 1.3242 6.2969 2.375v8.7969c-2.0312-1.3828-4.0391-2.3984-6.0156-3.0469-1.9688-0.64453-4.0469-0.96875-6.2344-0.96875-3.9062 0-6.9844 1.2578-9.2344 3.7656-2.2422 2.5-3.3594 5.9531-3.3594 10.359 0 4.3867 1.1172 7.8359 3.3594 10.344 2.25 2.5 5.3281 3.75 9.2344 3.75 2.1875 0 4.2656-0.32031 6.2344-0.96875 1.9766-0.64453 3.9844-1.6602 6.0156-3.0469z"/>
  </symbol>
  <symbol id="f" overflow="visible">
   <path d="m16.031-40.953v9.0625h10.516v7.2812h-10.516v13.531c0 1.4805 0.28906 2.4805 0.875 3 0.59375 0.52344 1.7656 0.78125 3.5156 0.78125h5.2344v7.2969h-8.7344c-4.0312 0-6.8867-0.83594-8.5625-2.5156-1.6797-1.6875-2.5156-4.5391-2.5156-8.5625v-13.531h-5.0781v-7.2812h5.0781v-9.0625z"/>
  </symbol>
  <symbol id="e" overflow="visible">
   <path d="m26.594-27.234v-17.078h10.266v44.312h-10.266v-4.6094c-1.3984 1.875-2.9453 3.25-4.6406 4.125-1.6875 0.875-3.6406 1.3125-5.8594 1.3125-3.9297 0-7.1562-1.5625-9.6875-4.6875-2.5234-3.125-3.7812-7.1445-3.7812-12.062 0-4.9141 1.2578-8.9375 3.7812-12.062 2.5312-3.125 5.7578-4.6875 9.6875-4.6875 2.1953 0 4.1445 0.44531 5.8438 1.3281 1.707 0.88672 3.2578 2.2578 4.6562 4.1094zm-6.7188 20.656c2.1875 0 3.8516-0.79688 5-2.3906 1.1445-1.5938 1.7188-3.9102 1.7188-6.9531 0-3.0391-0.57422-5.3594-1.7188-6.9531-1.1484-1.5938-2.8125-2.3906-5-2.3906-2.168 0-3.8242 0.79688-4.9688 2.3906-1.1484 1.5938-1.7188 3.9141-1.7188 6.9531 0 3.043 0.57031 5.3594 1.7188 6.9531 1.1445 1.5938 2.8008 2.3906 4.9688 2.3906z"/>
  </symbol>
  <symbol id="d" overflow="visible">
   <path d="m21.875-6.5781c2.1758 0 3.8359-0.79688 4.9844-2.3906 1.1562-1.5938 1.7344-3.9102 1.7344-6.9531 0-3.0391-0.57812-5.3594-1.7344-6.9531-1.1484-1.5938-2.8086-2.3906-4.9844-2.3906-2.1875 0-3.8672 0.80469-5.0312 2.4062-1.168 1.6055-1.75 3.918-1.75 6.9375 0 3.0234 0.58203 5.3359 1.75 6.9375 1.1641 1.6055 2.8438 2.4062 5.0312 2.4062zm-6.7812-20.656c1.4062-1.8516 2.9609-3.2227 4.6719-4.1094 1.707-0.88281 3.6719-1.3281 5.8906-1.3281 3.9375 0 7.1641 1.5625 9.6875 4.6875 2.5195 3.125 3.7812 7.1484 3.7812 12.062 0 4.918-1.2617 8.9375-3.7812 12.062-2.5234 3.125-5.75 4.6875-9.6875 4.6875-2.2188 0-4.1836-0.44531-5.8906-1.3281-1.7109-0.88281-3.2656-2.2539-4.6719-4.1094v4.6094h-10.188v-44.312h10.188z"/>
  </symbol>
  <symbol id="c" overflow="visible">
   <path d="m0.28125-42.516h39.188v8.2812h-14.094v34.234h-10.969v-34.234h-14.125z"/>
  </symbol>
  <symbol id="b" overflow="visible">
   <path d="m36.969-19.422v19.422h-10.25v-14.812c0-2.7891-0.0625-4.707-0.1875-5.75-0.125-1.0391-0.33984-1.8125-0.64062-2.3125-0.39844-0.65625-0.9375-1.1719-1.625-1.5469s-1.4648-0.5625-2.3281-0.5625c-2.1367 0-3.8125 0.82422-5.0312 2.4688-1.2109 1.6484-1.8125 3.9219-1.8125 6.8281v15.688h-10.188v-44.312h10.188v17.078c1.5391-1.8516 3.1719-3.2227 4.8906-4.1094 1.7266-0.88281 3.6406-1.3281 5.7344-1.3281 3.6875 0 6.4844 1.1328 8.3906 3.3906 1.9062 2.2617 2.8594 5.5469 2.8594 9.8594z"/>
  </symbol>
  <symbol id="a" overflow="visible">
   <path d="m5.3594-42.516h10.953v42.516h-10.953z"/>
  </symbol>
 </defs>
 <g>
  <path d="m195.49 214.09v-11.094c0-3.2227 2.6094-5.832 5.832-5.832 3.2227 0 5.832 2.6094 5.832 5.832v11.152c0 3.2227-2.6094 5.8359-5.832 5.8359-3.2227 0-5.832-2.6133-5.832-5.8359zm5.832-33.18c1.5469 0 3.0312-0.61328 4.125-1.707s1.707-2.5781 1.707-4.125v-11.152c0-3.2227-2.6094-5.8359-5.832-5.8359-3.2227 0-5.832 2.6133-5.832 5.8359v11.152c0 1.5469 0.61328 3.0312 1.707 4.125s2.5781 1.707 4.125 1.707zm-17.43 13.918h3.6172c3.2188 0 5.832-2.6094 5.832-5.832s-2.6133-5.832-5.832-5.832h-3.6172c-3.2227 0-5.832 2.6094-5.832 5.832s2.6094 5.832 5.832 5.832zm31.371 0h3.6289c3.2227 0 5.832-2.6094 5.832-5.832s-2.6094-5.832-5.832-5.832h-3.6289c-3.2227 0-5.832 2.6094-5.832 5.832s2.6094 5.832 5.832 5.832zm118.7 163.44c0.003907-4.2539 1.6953-8.3359 4.707-11.34 3.0078-3.0078 7.0898-4.6953 11.344-4.6914 4.2539 0 8.332 1.6914 11.34 4.7031 3.0078 3.0078 4.6953 7.0898 4.6953 11.344-0.003907 4.2539-1.6914 8.332-4.7031 11.34-3.0078 3.0078-7.0859 4.6953-11.34 4.6953-4.2539-0.003907-8.332-1.6992-11.34-4.707-3.0078-3.0117-4.6992-7.0898-4.7031-11.344zm11.668 0c0 1.7695 1.0664 3.3633 2.6992 4.0391 1.6367 0.67969 3.5195 0.30469 4.7695-0.94531 1.25-1.2539 1.625-3.1367 0.94922-4.7695-0.67969-1.6367-2.2734-2.6992-4.043-2.6992-2.4141 0.003906-4.3672 1.9609-4.375 4.375zm210.63 65.953v-0.003906c0 1.5469-0.61328 3.0312-1.707 4.125s-2.5781 1.7109-4.125 1.7109h-400.84c-3.2227 0-5.832-2.6133-5.832-5.8359s2.6094-5.832 5.832-5.832h49.398c-1.8164-1.957-3.4023-4.1094-4.7383-6.418-3.0664-5.4648-4.5938-11.656-4.4102-17.922 0.17969-6.2617 2.0586-12.359 5.4375-17.637l40.66-64.586-1.5039-12.273h-0.003906c-0.60938-4.9766 0.94141-9.9727 4.2578-13.727 3.3203-3.7578 8.0898-5.9062 13.102-5.9102h61.707c4.2773-7.1758 6.4922-15.398 6.3906-23.754-8.168-3.0039-15.223-8.4375-20.215-15.57-4.9883-7.1328-7.6758-15.625-7.7031-24.328v-31.383l-29.809-44.195c-1.207-1.7852-1.3281-4.0938-0.31641-6s2.9922-3.0977 5.1484-3.0977h15.949l-15.762-27.941c-1.0898-1.9336-0.98438-4.3203 0.26562-6.1484 1.2266-1.8633 3.4258-2.8359 5.625-2.4883l88.422 12.32c13.121 1.8789 25.125 8.4141 33.828 18.414 8.6992 10 13.512 22.793 13.562 36.047v54.449c-0.03125 8.8477-2.8125 17.469-7.9609 24.664-5.1484 7.1953-12.41 12.609-20.773 15.492-0.082031 8.2695 2.1289 16.402 6.3789 23.496h61.707c5.0117 0.003907 9.7812 2.1562 13.102 5.9102 3.3164 3.7539 4.8672 8.75 4.2578 13.727l-1.5039 12.273 40.66 64.598h-0.003906c3.3789 5.2734 5.2578 11.371 5.4414 17.633 0.17969 6.2617-1.3477 12.453-4.4141 17.914-1.3359 2.3086-2.9219 4.4609-4.7383 6.418h49.398c1.5508 0 3.0391 0.61719 4.1328 1.7148 1.0938 1.1016 1.707 2.5898 1.6992 4.1406zm-221.58-176.89h31.5c2.0078-0.003906 4.0117-0.20703 5.9844-0.60547 0.42188-0.17187 0.86328-0.29297 1.3164-0.36328 6.75-1.6289 12.758-5.4766 17.062-10.93 4.3008-5.4492 6.6523-12.188 6.668-19.133v-54.484c-0.035156-10.441-3.8281-20.523-10.684-28.402-6.8555-7.875-16.312-13.027-26.648-14.508l-76.73-10.723 17.172 30.473v0.003906c0.78906 1.3477 1.0039 2.957 0.59766 4.4688-0.40625 1.5078-1.4062 2.793-2.7656 3.5586-1.3633 0.76953-2.9766 0.95703-4.4805 0.52344-1.5039-0.42969-2.7695-1.4492-3.5156-2.8242l-0.64063-1.168h-11.562l24.676 36.586c0.10547 0.15234 0.11719 0.32812 0.21094 0.47656v0.003906c0.19922 0.36719 0.35156 0.76172 0.45312 1.168 0.12109 0.37891 0.19922 0.76953 0.23438 1.1641 0.046875 0.17187 0.082031 0.34766 0.10547 0.52734v33.168c0.015625 8.2266 3.293 16.109 9.1133 21.926 5.8164 5.8164 13.703 9.0859 21.934 9.0938zm-7.9219 32.668h46.504-0.003906c-2.8047-6.7305-4.3867-13.91-4.6641-21.199-0.80469 0-1.5625 0.24609-2.332 0.24609h-31.5c-1.1094 0-2.1367-0.24609-3.2188-0.32812h-0.003906c-0.3125 7.2969-1.9336 14.477-4.7812 21.199zm-80.758 18.211 1.5273 12.426c0.46094 1.0352 0.60156 2.1836 0.41016 3.3008l12.832 103.73v0.003907c0 0.26953-0.023438 0.53906-0.070313 0.80469h178.68c-0.046876-0.26562-0.070313-0.53516-0.070313-0.80469l12.832-103.73v-0.003906c-0.19141-1.1172-0.050781-2.2656 0.41016-3.3008l1.5273-12.426c0.21875-1.6641-0.30078-3.3359-1.4219-4.5859-1.1094-1.2461-2.6953-1.957-4.3633-1.957h-196.5c-1.668 0-3.2539 0.71094-4.3633 1.957-1.0977 1.2305-1.6172 2.8711-1.4219 4.5039zm-13.336 120.18h16.332l-5.1562-41.871c-6.5078-0.40234-13.039-0.26562-19.527 0.40625-0.22656 0.019531-0.45313 0.019531-0.67969 0-3.2188 0.18359-5.9805-2.2773-6.1641-5.5-0.18359-3.2227 2.2773-5.9805 5.5-6.1641 6.4531-0.69531 12.945-0.87891 19.426-0.55078l-4.2109-34.543-33.039 52.5c-2.9766 4.7266-4.1562 10.367-3.3242 15.895 0.82812 5.5234 3.6172 10.566 7.8516 14.215 4.2344 3.6445 9.6367 5.6484 15.223 5.6484zm242.46 0c5.582-0.003906 10.973-2.0117 15.203-5.6523 4.2305-3.6406 7.0117-8.6758 7.8477-14.191 0.83594-5.5195-0.33594-11.152-3.3008-15.879l-33.039-52.5-4.2695 34.648c6.4805-0.32422 12.977-0.13672 19.426 0.55859 3.2227 0.18359 5.6836 2.9453 5.5 6.168-0.18359 3.2227-2.9453 5.6836-6.1641 5.5-0.22656 0.019531-0.45312 0.019531-0.67969 0-6.4844-0.67578-13.02-0.8125-19.527-0.40625l-5.1562 41.871h24.16zm-55.707 35c-2.3594 0-4.4883 1.4219-5.3906 3.6016-0.90234 2.1797-0.40234 4.6875 1.2656 6.3555 1.668 1.668 4.1758 2.168 6.3555 1.2656 2.1797-0.90234 3.6016-3.0312 3.6016-5.3906 0-1.5469-0.61328-3.0312-1.707-4.125s-2.5781-1.707-4.125-1.707zm35 0c-2.3594 0-4.4883 1.4219-5.3906 3.6016-0.90234 2.1797-0.40234 4.6875 1.2656 6.3555 1.668 1.668 4.1758 2.168 6.3555 1.2656 2.1797-0.90234 3.6016-3.0312 3.6016-5.3906 0-1.5469-0.61328-3.0312-1.707-4.125s-2.5781-1.707-4.125-1.707zm35 0c-2.3594 0-4.4883 1.4219-5.3906 3.6016-0.90234 2.1797-0.40234 4.6875 1.2656 6.3555 1.668 1.668 4.1758 2.168 6.3555 1.2656 2.1797-0.90234 3.6016-3.0312 3.6016-5.3906 0-1.5469-0.61328-3.0312-1.707-4.125s-2.5781-1.707-4.125-1.707z"/>
  <use x="70" y="735" xlink:href="#g"/>
  <use x="220.503906" y="735" xlink:href="#f"/>
  <use x="287.953125" y="735" xlink:href="#e"/>
  <use x="350.015625" y="735" xlink:href="#d"/>
  <use x="450.105469" y="735" xlink:href="#c"/>
  <use x="489.898437" y="735" xlink:href="#b"/>
  <use x="591.296875" y="735" xlink:href="#a"/>
 </g>
</svg>
