<svg xmlns="http://www.w3.org/2000/svg" viewBox="0 0 16.75 16.75"><defs><style>.cls-1{fill:none;stroke:#2d9ccc;stroke-miterlimit:10;stroke-width:0.75px;}.cls-2{fill:#2d9ccc;}</style></defs><g id="Layer_2" data-name="Layer 2"><g id="Layer_1-2" data-name="Layer 1"><rect class="cls-1" x="0.38" y="0.38" width="16" height="16"/><rect class="cls-2" x="7.8" y="7.35" width="7.41" height="2.06" rx="1.03" transform="translate(-2.55 10.59) rotate(-45)"/><path class="cls-2" d="M13.4,11.42a1.16,1.16,0,1,1,1.15-1.15A1.15,1.15,0,0,1,13.4,11.42Z"/><path class="cls-2" d="M13.4,9.24a1,1,0,1,1-1,1,1,1,0,0,1,1-1m0-.25a1.28,1.28,0,1,0,1.28,1.28A1.28,1.28,0,0,0,13.4,9Z"/><rect class="cls-2" x="4.22" y="4.67" width="2.06" height="7.41" rx="1.03" transform="translate(-4.39 6.16) rotate(-45)"/><path class="cls-2" d="M3.35,11.42A1.16,1.16,0,1,1,4.5,10.27,1.15,1.15,0,0,1,3.35,11.42Z"/><path class="cls-2" d="M3.35,9.24a1,1,0,1,1-1,1,1,1,0,0,1,1-1h0m0-.25a1.28,1.28,0,1,0,1.28,1.28A1.28,1.28,0,0,0,3.35,9Z"/></g></g></svg>