<svg xmlns="http://www.w3.org/2000/svg" viewBox="0 0 16 16"><defs><style>.cls-1{fill:#2c9bcb;}.cls-2{fill:#fff;}</style></defs><g id="Layer_2" data-name="Layer 2"><g id="Layer_1-2" data-name="Layer 1"><rect class="cls-1" width="16" height="16" rx="8"/><rect class="cls-2" x="7.42" y="6.97" width="7.41" height="2.06" rx="1.03" transform="translate(-2.4 10.21) rotate(-45)"/><path class="cls-2" d="M13,11a1.15,1.15,0,1,1,1.16-1.15A1.15,1.15,0,0,1,13,11Z"/><path class="cls-2" d="M13,8.86a1,1,0,1,1-1,1,1,1,0,0,1,1-1m0-.25A1.28,1.28,0,1,0,14.3,9.89,1.28,1.28,0,0,0,13,8.61Z"/><rect class="cls-2" x="3.84" y="4.3" width="2.06" height="7.41" rx="1.03" transform="translate(-4.23 5.79) rotate(-45)"/><path class="cls-2" d="M3,11A1.15,1.15,0,1,1,4.13,9.89,1.15,1.15,0,0,1,3,11Z"/><path class="cls-2" d="M3,8.86a1,1,0,1,1-1,1,1,1,0,0,1,1-1m0-.25A1.28,1.28,0,1,0,4.25,9.89,1.28,1.28,0,0,0,3,8.61Z"/></g></g></svg>