<?xml version="1.0" encoding="UTF-8" standalone="no"?>
<svg
   viewBox="0 0 317.89748 89.597385"
   version="1.1"
   id="svg28"
   sodipodi:docname="055c8116e591a44c19e5a8fdbc36931e.svg"
   width="317.89749"
   height="89.597382"
   xmlns:inkscape="http://www.inkscape.org/namespaces/inkscape"
   xmlns:sodipodi="http://sodipodi.sourceforge.net/DTD/sodipodi-0.dtd"
   xmlns="http://www.w3.org/2000/svg"
   xmlns:svg="http://www.w3.org/2000/svg">
  <sodipodi:namedview
     id="namedview30"
     pagecolor="#ffffff"
     bordercolor="#666666"
     borderopacity="1.0"
     inkscape:pageshadow="2"
     inkscape:pageopacity="0.0"
     inkscape:pagecheckerboard="0" />
  <defs
     id="defs4">
    <style
       id="style2">.cls-1{fill:#2e9ccc;}</style>
  </defs>
  <g
     id="Layer_2"
     data-name="Layer 2"
     transform="translate(0.00750163,-0.00261802)">
    <g
       id="Layer_1-2"
       data-name="Layer 1">
      <path
         class="cls-1"
         d="M 317.89,44.87 A 15.75,15.75 0 0 1 313.28,56 L 285.36,84 A 15.814444,15.814444 0 1 1 263,61.63 l 17.26,-17.28 a 0.1,0.1 0 0 0 0,-0.13 L 263.35,27.32 C 257.14,21.1 256.76,10.89 262.96,4.65 a 15.81,15.81 0 0 1 22.37,0 l 27.92,27.92 a 15.67,15.67 0 0 1 4.6,11.57 2,2 0 0 1 0,0.35 c 0.04,0.11 0.04,0.24 0.04,0.38 z"
         id="path6" />
      <path
         class="cls-1"
         d="M 177,88.71 A 15.07,15.07 0 0 1 166.35,63 L 221.29,8.05 A 15.07,15.07 0 0 1 242.6,29.36 L 187.66,84.3 A 15,15 0 0 1 177,88.71 Z"
         id="path8" />
      <path
         class="cls-1"
         d="m 232,3.76 a 14.89,14.89 0 0 1 10.56,4.38 v 0 a 14.93,14.93 0 0 1 0,21.13 L 187.57,84.21 A 14.941166,14.941166 0 0 1 166.44,63.08 L 221.38,8.14 A 14.89,14.89 0 0 1 232,3.76 m 0,-0.25 A 15.11,15.11 0 0 0 221.2,8 l -54.94,54.9 a 15.19219,15.19219 0 1 0 21.48,21.49 L 242.69,29.45 A 15.2,15.2 0 0 0 232,3.51 Z"
         id="path10" />
      <path
         class="cls-1"
         d="M 232.06,89.09 A 15.45,15.45 0 1 1 247.5,73.65 15.46,15.46 0 0 1 232.06,89.09 Z"
         id="path12" />
      <path
         class="cls-1"
         d="m 232.06,58.7 a 14.94,14.94 0 0 1 14.94,15 v 0 a 14.94,14.94 0 0 1 -14.94,14.94 v 0 A 14.94,14.94 0 0 1 217.11,73.7 v 0 a 15,15 0 0 1 14.95,-15 v 0 m 0,-1 a 15.95,15.95 0 1 0 15.94,16 16,16 0 0 0 -15.94,-16 z"
         id="path14" />
      <path
         class="cls-1"
         d="M 141.1,88.71 A 15,15 0 0 1 130.44,84.3 L 75.5,29.36 A 15.07,15.07 0 1 1 96.81,8.05 L 151.75,63 A 15.07,15.07 0 0 1 141.1,88.71 Z"
         id="path16" />
      <path
         class="cls-1"
         d="m 86.15,3.76 a 14.89,14.89 0 0 1 10.57,4.38 l 54.94,54.94 a 14.93,14.93 0 0 1 0,21.13 v 0 a 14.93,14.93 0 0 1 -21.13,0 L 75.59,29.27 a 14.93,14.93 0 0 1 0,-21.13 v 0 A 14.87,14.87 0 0 1 86.15,3.76 m 0,-0.25 A 15.2,15.2 0 0 0 75.41,29.45 l 54.94,54.94 A 15.2,15.2 0 0 0 151.84,62.9 L 96.9,8 A 15.11,15.11 0 0 0 86.15,3.51 Z"
         id="path18" />
      <path
         class="cls-1"
         d="M 86.08,89.09 A 15.45,15.45 0 1 1 101.52,73.65 15.46,15.46 0 0 1 86.08,89.09 Z"
         id="path20" />
      <path
         class="cls-1"
         d="m 86.08,58.7 a 14.94,14.94 0 0 1 14.94,15 v 0 A 14.94,14.94 0 0 1 86.08,88.59 v 0 a 14.94,14.94 0 0 1 -15,-14.94 v 0 a 15,15 0 0 1 15,-15 v 0 m 0,-1 a 15.95,15.95 0 1 0 15.94,16 16,16 0 0 0 -15.94,-16 z"
         id="path22" />
      <path
         class="cls-1"
         d="M 54.88,61.63 A 15.803843,15.803843 0 1 1 32.55,84 L 4.63,56 A 15.63,15.63 0 0 1 0,44.46 1.93,1.93 0 0 1 0,44.12 2.88,2.88 0 0 1 0,43.71 15.82,15.82 0 0 1 4.63,32.54 L 32.55,4.62 A 15.807382,15.807382 0 0 1 54.88,27 L 37.6,44.23 a 0.1,0.1 0 0 0 0,0.13 z"
         id="path24" />
    </g>
  </g>
</svg>
