<svg xmlns="http://www.w3.org/2000/svg" viewBox="0 0 317.89 89.59"><defs><style>.cls-1{fill:#2e9ccc;}</style></defs><g id="Layer_2" data-name="Layer 2"><g id="Layer_1-2" data-name="Layer 1"><path class="cls-1" d="M317.89,44.87A15.75,15.75,0,0,1,313.28,56L285.36,84A15.79,15.79,0,1,1,263,61.63l17.26-17.28a.1.1,0,0,0,0-.13l-16.91-16.9c-6.21-6.22-6.59-16.43-.39-22.67a15.81,15.81,0,0,1,22.37,0l27.92,27.92a15.67,15.67,0,0,1,4.6,11.57,2,2,0,0,1,0,.35C317.89,44.6,317.89,44.73,317.89,44.87Z"/><path class="cls-1" d="M177,88.71A15.07,15.07,0,0,1,166.35,63L221.29,8.05A15.07,15.07,0,0,1,242.6,29.36L187.66,84.3A15,15,0,0,1,177,88.71Z"/><path class="cls-1" d="M232,3.76a14.89,14.89,0,0,1,10.56,4.38h0a14.93,14.93,0,0,1,0,21.13L187.57,84.21a14.94,14.94,0,0,1-21.13-21.13L221.38,8.14A14.89,14.89,0,0,1,232,3.76m0-.25A15.11,15.11,0,0,0,221.2,8L166.26,62.9a15.19,15.19,0,1,0,21.48,21.49l54.95-54.94A15.2,15.2,0,0,0,232,3.51Z"/><path class="cls-1" d="M232.06,89.09A15.45,15.45,0,1,1,247.5,73.65,15.46,15.46,0,0,1,232.06,89.09Z"/><path class="cls-1" d="M232.06,58.7a14.94,14.94,0,0,1,14.94,15h0a14.94,14.94,0,0,1-14.94,14.94h0a14.94,14.94,0,0,1-14.95-14.94h0a15,15,0,0,1,14.95-15h0m0-1a15.95,15.95,0,1,0,15.94,16,16,16,0,0,0-15.94-16Z"/><path class="cls-1" d="M141.1,88.71a15,15,0,0,1-10.66-4.41L75.5,29.36A15.07,15.07,0,1,1,96.81,8.05L151.75,63A15.07,15.07,0,0,1,141.1,88.71Z"/><path class="cls-1" d="M86.15,3.76A14.89,14.89,0,0,1,96.72,8.14l54.94,54.94a14.93,14.93,0,0,1,0,21.13h0a14.93,14.93,0,0,1-21.13,0L75.59,29.27a14.93,14.93,0,0,1,0-21.13h0A14.87,14.87,0,0,1,86.15,3.76m0-.25A15.2,15.2,0,0,0,75.41,29.45l54.94,54.94A15.2,15.2,0,0,0,151.84,62.9L96.9,8A15.11,15.11,0,0,0,86.15,3.51Z"/><path class="cls-1" d="M86.08,89.09a15.45,15.45,0,1,1,15.44-15.44A15.46,15.46,0,0,1,86.08,89.09Z"/><path class="cls-1" d="M86.08,58.7a14.94,14.94,0,0,1,14.94,15h0A14.94,14.94,0,0,1,86.08,88.59h0a14.94,14.94,0,0,1-15-14.94h0a15,15,0,0,1,15-15h0m0-1a15.95,15.95,0,1,0,15.94,16,16,16,0,0,0-15.94-16Z"/><path class="cls-1" d="M54.88,61.63A15.79,15.79,0,1,1,32.55,84L4.63,56A15.63,15.63,0,0,1,0,44.46a1.93,1.93,0,0,1,0-.34,2.88,2.88,0,0,1,0-.41A15.82,15.82,0,0,1,4.63,32.54L32.55,4.62A15.8,15.8,0,0,1,54.88,27L37.6,44.23a.1.1,0,0,0,0,.13Z"/></g></g></svg>